REM DIRINDEX 1\8,1\2\11,1\3\12,1\3\14,1\5\15,1\5\16,1\6\17,1\6\18,1\4\19,1\4\20,1\4\21,1\4\22,1\7\23,1\7\24,1\7\25,1\2\9\26,1\2\9\27,1\2\10\28,1\2\10\29,1\2\10\30,1\2\10\31,1\2\10\32,1\3\13\33,1\3\13\34,1\3\13\35
REM DIRNAME folder01,folder02,folder03,folder04,folder05,folder06,folder07,folder08,folder09,folder10,folder11,folder12,folder13,folder14,folder15,folder16,folder17,folder18,folder19,folder20,folder21,folder22,folder23,folder24,folder25,folder26,folder27,folder28,folder29,folder30,folder31,folder32,folder33,folder34,folder35
TITLE ""
FILE "72 072_UNIT7_SET6.mp3" MP3
  TRACK 01 AUDIO
    TITLE "11:cjc123_7026"
    INDEX 01 00:00:00
  TRACK 02 AUDIO
    TITLE "0:"
    INDEX 01 00:02:55
  TRACK 03 AUDIO
    TITLE "28:cjc123_7027"
    INDEX 01 00:03:23
  TRACK 04 AUDIO
    TITLE "0:"
    INDEX 01 00:04:15
  TRACK 05 AUDIO
    TITLE "29:cjc123_7028"
    INDEX 01 00:04:33
  TRACK 06 AUDIO
    TITLE "0:"
    INDEX 01 00:05:40
  TRACK 07 AUDIO
    TITLE "30:cjc123_7029"
    INDEX 01 00:05:46
  TRACK 08 AUDIO
    TITLE "0:"
    INDEX 01 00:06:57
  TRACK 09 AUDIO
    TITLE "31:cjc123_7030"
    INDEX 01 00:07:33
  TRACK 10 AUDIO
    TITLE "0:"
    INDEX 01 00:10:31
  TRACK 11 AUDIO
    TITLE "32:cjc123_7031"
    INDEX 01 00:11:07
  TRACK 12 AUDIO
    TITLE "0:"
    INDEX 01 00:13:45
  TRACK 13 AUDIO
    TITLE "28:cjc123_7032"
    INDEX 01 00:13:69
  TRACK 14 AUDIO
    TITLE "0:"
    INDEX 01 00:14:47
  TRACK 15 AUDIO
    TITLE "29:cjc123_7033"
    INDEX 01 00:14:60
  TRACK 16 AUDIO
    TITLE "0:"
    INDEX 01 00:16:02
  TRACK 17 AUDIO
    TITLE "30:cjc123_7034"
    INDEX 01 00:16:10
  TRACK 18 AUDIO
    TITLE "0:"
    INDEX 01 00:16:73
  TRACK 19 AUDIO
    TITLE "31:cjc123_7035"
    INDEX 01 00:17:45
  TRACK 20 AUDIO
    TITLE "0:"
    INDEX 01 00:23:04
  TRACK 21 AUDIO
    TITLE "32:cjc123_7036"
    INDEX 01 00:23:32
  TRACK 22 AUDIO
    TITLE "0:"
    INDEX 01 00:27:65
  TRACK 23 AUDIO
    TITLE "28:cjc123_7037"
    INDEX 01 00:28:21
  TRACK 24 AUDIO
    TITLE "0:"
    INDEX 01 00:29:42
  TRACK 25 AUDIO
    TITLE "29:cjc123_7038"
    INDEX 01 00:29:52
  TRACK 26 AUDIO
    TITLE "0:"
    INDEX 01 00:31:22
  TRACK 27 AUDIO
    TITLE "30:cjc123_7039"
    INDEX 01 00:31:29
  TRACK 28 AUDIO
    TITLE "0:"
    INDEX 01 00:32:48
  TRACK 29 AUDIO
    TITLE "31:cjc123_7040"
    INDEX 01 00:33:40
  TRACK 30 AUDIO
    TITLE "0:"
    INDEX 01 00:38:45
  TRACK 31 AUDIO
    TITLE "32:cjc123_7041"
    INDEX 01 00:38:67
  TRACK 32 AUDIO
    TITLE "0:"
    INDEX 01 00:44:14
  TRACK 33 AUDIO
    TITLE "28:cjc123_7042"
    INDEX 01 00:44:38
  TRACK 34 AUDIO
    TITLE "0:"
    INDEX 01 00:45:43
  TRACK 35 AUDIO
    TITLE "29:cjc123_7043"
    INDEX 01 00:45:57
  TRACK 36 AUDIO
    TITLE "0:"
    INDEX 01 00:46:54
  TRACK 37 AUDIO
    TITLE "30:cjc123_7044"
    INDEX 01 00:46:64
  TRACK 38 AUDIO
    TITLE "0:"
    INDEX 01 00:48:00
  TRACK 39 AUDIO
    TITLE "31:cjc123_7045"
    INDEX 01 00:48:46
  TRACK 40 AUDIO
    TITLE "0:"
    INDEX 01 00:53:60
  TRACK 41 AUDIO
    TITLE "32:cjc123_7046"
    INDEX 01 00:54:36
  TRACK 42 AUDIO
    TITLE "0:"
    INDEX 01 01:00:06
  TRACK 43 AUDIO
    TITLE "28:cjc123_7047"
    INDEX 01 01:00:27
  TRACK 44 AUDIO
    TITLE "0:"
    INDEX 01 01:01:27
  TRACK 45 AUDIO
    TITLE "29:cjc123_7048"
    INDEX 01 01:01:44
  TRACK 46 AUDIO
    TITLE "0:"
    INDEX 01 01:03:06
  TRACK 47 AUDIO
    TITLE "30:cjc123_7049"
    INDEX 01 01:03:16
  TRACK 48 AUDIO
    TITLE "0:"
    INDEX 01 01:04:19
  TRACK 49 AUDIO
    TITLE "31:cjc123_7050"
    INDEX 01 01:04:72
  TRACK 50 AUDIO
    TITLE "0:"
    INDEX 01 01:10:65
  TRACK 51 AUDIO
    TITLE "32:cjc123_7051"
    INDEX 01 01:11:45
  TRACK 52 AUDIO
    TITLE "0:"
    INDEX 01 01:17:35
  TRACK 53 AUDIO
    TITLE "28:cjc123_7052"
    INDEX 01 01:17:73
  TRACK 54 AUDIO
    TITLE "0:"
    INDEX 01 01:19:07
  TRACK 55 AUDIO
    TITLE "29:cjc123_7053"
    INDEX 01 01:19:21
  TRACK 56 AUDIO
    TITLE "0:"
    INDEX 01 01:20:49
  TRACK 57 AUDIO
    TITLE "30:cjc123_7054"
    INDEX 01 01:20:59
  TRACK 58 AUDIO
    TITLE "0:"
    INDEX 01 01:22:01
  TRACK 59 AUDIO
    TITLE "31:cjc123_7055"
    INDEX 01 01:22:52
  TRACK 60 AUDIO
    TITLE "0:"
    INDEX 01 01:27:63
  TRACK 61 AUDIO
    TITLE "32:cjc123_7056"
    INDEX 01 01:28:27
  TRACK 62 AUDIO
    TITLE "0:"
    INDEX 01 01:34:05
  TRACK 63 AUDIO
    TITLE "28:cjc123_7057"
    INDEX 01 01:34:46
  TRACK 64 AUDIO
    TITLE "0:"
    INDEX 01 01:35:73
  TRACK 65 AUDIO
    TITLE "29:cjc123_7058"
    INDEX 01 01:36:00
  TRACK 66 AUDIO
    TITLE "0:"
    INDEX 01 01:37:30
  TRACK 67 AUDIO
    TITLE "30:cjc123_7059"
    INDEX 01 01:37:34
  TRACK 68 AUDIO
    TITLE "0:"
    INDEX 01 01:38:43
  TRACK 69 AUDIO
    TITLE "31:cjc123_7060"
    INDEX 01 01:39:15
  TRACK 70 AUDIO
    TITLE "0:"
    INDEX 01 01:43:52
  TRACK 71 AUDIO
    TITLE "32:cjc123_7061"
    INDEX 01 01:44:28
  TRACK 72 AUDIO
    TITLE "0:"
    INDEX 01 01:49:04
  TRACK 73 AUDIO
    TITLE "28:cjc123_7062"
    INDEX 01 01:49:32
  TRACK 74 AUDIO
    TITLE "0:"
    INDEX 01 01:50:35
  TRACK 75 AUDIO
    TITLE "29:cjc123_7063"
    INDEX 01 01:50:47
  TRACK 76 AUDIO
    TITLE "0:"
    INDEX 01 01:51:52
  TRACK 77 AUDIO
    TITLE "30:cjc123_7064"
    INDEX 01 01:51:62
  TRACK 78 AUDIO
    TITLE "0:"
    INDEX 01 01:52:57
  TRACK 79 AUDIO
    TITLE "31:cjc123_7065"
    INDEX 01 01:53:39
  TRACK 80 AUDIO
    TITLE "0:"
    INDEX 01 01:58:62
  TRACK 81 AUDIO
    TITLE "32:cjc123_7066"
    INDEX 01 01:59:26
  TRACK 82 AUDIO
    TITLE "0:"
    INDEX 01 02:04:43
  TRACK 83 AUDIO
    TITLE "28:cjc123_7067"
    INDEX 01 02:05:13
  TRACK 84 AUDIO
    TITLE "0:"
    INDEX 01 02:06:20
  TRACK 85 AUDIO
    TITLE "29:cjc123_7068"
    INDEX 01 02:06:38
  TRACK 86 AUDIO
    TITLE "0:"
    INDEX 01 02:07:49
  TRACK 87 AUDIO
    TITLE "30:cjc123_7069"
    INDEX 01 02:07:55
  TRACK 88 AUDIO
    TITLE "0:"
    INDEX 01 02:08:68
  TRACK 89 AUDIO
    TITLE "31:cjc123_7070"
    INDEX 01 02:09:48
  TRACK 90 AUDIO
    TITLE "0:"
    INDEX 01 02:17:45
  TRACK 91 AUDIO
    TITLE "32:cjc123_7071"
    INDEX 01 02:18:08
  TRACK 92 AUDIO
    TITLE "0:"
    INDEX 01 02:25:04
  TRACK 93 AUDIO
    TITLE "28:cjc123_7072"
    INDEX 01 02:25:53
  TRACK 94 AUDIO
    TITLE "0:"
    INDEX 01 02:26:60
  TRACK 95 AUDIO
    TITLE "29:cjc123_7073"
    INDEX 01 02:26:68
  TRACK 96 AUDIO
    TITLE "0:"
    INDEX 01 02:28:10
  TRACK 97 AUDIO
    TITLE "30:cjc123_7074"
    INDEX 01 02:28:16
  TRACK 98 AUDIO
    TITLE "0:"
    INDEX 01 02:29:25
  TRACK 99 AUDIO
    TITLE "31:cjc123_7075"
    INDEX 01 02:30:01
  TRACK 100 AUDIO
    TITLE "0:"
    INDEX 01 02:35:39
  TRACK 101 AUDIO
    TITLE "32:cjc123_7076"
    INDEX 01 02:35:71
  TRACK 102 AUDIO
    TITLE "0:"
    INDEX 01 02:41:11
  TRACK 103 AUDIO
    TITLE "28:cjc123_7077"
    INDEX 01 02:41:56
  TRACK 104 AUDIO
    TITLE "0:"
    INDEX 01 02:42:61
  TRACK 105 AUDIO
    TITLE "29:cjc123_7078"
    INDEX 01 02:43:02
  TRACK 106 AUDIO
    TITLE "0:"
    INDEX 01 02:43:72
  TRACK 107 AUDIO
    TITLE "30:cjc123_7079"
    INDEX 01 02:44:07
  TRACK 108 AUDIO
    TITLE "0:"
    INDEX 01 02:45:14
  TRACK 109 AUDIO
    TITLE "31:cjc123_7080"
    INDEX 01 02:45:61
  TRACK 110 AUDIO
    TITLE "0:"
    INDEX 01 02:52:14
  TRACK 111 AUDIO
    TITLE "32:cjc123_7081"
    INDEX 01 02:52:65
  TRACK 112 AUDIO
    TITLE "0:"
    INDEX 01 02:58:58
  TRACK 113 AUDIO
    TITLE "28:cjc123_7082"
    INDEX 01 02:59:16
  TRACK 114 AUDIO
    TITLE "0:"
    INDEX 01 03:00:22
  TRACK 115 AUDIO
    TITLE "29:cjc123_7083"
    INDEX 01 03:00:32
  TRACK 116 AUDIO
    TITLE "0:"
    INDEX 01 03:02:03
  TRACK 117 AUDIO
    TITLE "30:cjc123_7084"
    INDEX 01 03:02:09
  TRACK 118 AUDIO
    TITLE "0:"
    INDEX 01 03:03:12
  TRACK 119 AUDIO
    TITLE "31:cjc123_7085"
    INDEX 01 03:03:63
  TRACK 120 AUDIO
    TITLE "0:"
    INDEX 01 03:09:01
  TRACK 121 AUDIO
    TITLE "32:cjc123_7086"
    INDEX 01 03:09:33
  TRACK 122 AUDIO
    TITLE "0:"
    INDEX 01 03:14:73
  TRACK 123 AUDIO
    TITLE "28:cjc123_7087"
    INDEX 01 03:15:45
  TRACK 124 AUDIO
    TITLE "0:"
    INDEX 01 03:16:64
  TRACK 125 AUDIO
    TITLE "29:cjc123_7088"
    INDEX 01 03:17:16
  TRACK 126 AUDIO
    TITLE "0:"
    INDEX 01 03:18:43
  TRACK 127 AUDIO
    TITLE "30:cjc123_7089"
    INDEX 01 03:18:51
  TRACK 128 AUDIO
    TITLE "0:"
    INDEX 01 03:19:62
  TRACK 129 AUDIO
    TITLE "31:cjc123_7090"
    INDEX 01 03:20:40
  TRACK 130 AUDIO
    TITLE "0:"
    INDEX 01 03:25:30
  TRACK 131 AUDIO
    TITLE "32:cjc123_7091"
    INDEX 01 03:25:61
  TRACK 132 AUDIO
    TITLE "0:"
    INDEX 01 03:30:46
  TRACK 133 AUDIO
    TITLE "28:cjc123_7092"
    INDEX 01 03:31:15
  TRACK 134 AUDIO
    TITLE "0:"
    INDEX 01 03:32:24
  TRACK 135 AUDIO
    TITLE "29:cjc123_7093"
    INDEX 01 03:32:34
  TRACK 136 AUDIO
    TITLE "0:"
    INDEX 01 03:33:62
  TRACK 137 AUDIO
    TITLE "30:cjc123_7094"
    INDEX 01 03:33:70
  TRACK 138 AUDIO
    TITLE "0:"
    INDEX 01 03:35:16
  TRACK 139 AUDIO
    TITLE "31:cjc123_7095"
    INDEX 01 03:35:67
  TRACK 140 AUDIO
    TITLE "0:"
    INDEX 01 03:40:37
  TRACK 141 AUDIO
    TITLE "32:cjc123_7096"
    INDEX 01 03:41:13
  TRACK 142 AUDIO
    TITLE "0:"
    INDEX 01 03:46:16
  TRACK 143 AUDIO
    TITLE "28:cjc123_7097"
    INDEX 01 03:46:45
  TRACK 144 AUDIO
    TITLE "0:"
    INDEX 01 03:47:66
  TRACK 145 AUDIO
    TITLE "29:cjc123_7098"
    INDEX 01 03:47:74
  TRACK 146 AUDIO
    TITLE "0:"
    INDEX 01 03:49:48
  TRACK 147 AUDIO
    TITLE "30:cjc123_7099"
    INDEX 01 03:49:56
  TRACK 148 AUDIO
    TITLE "0:"
    INDEX 01 03:50:69
  TRACK 149 AUDIO
    TITLE "31:cjc123_7100"
    INDEX 01 03:51:43
  TRACK 150 AUDIO
    TITLE "0:"
    INDEX 01 03:57:39
  TRACK 151 AUDIO
    TITLE "32:cjc123_7101"
    INDEX 01 03:58:04
  TRACK 152 AUDIO
    TITLE "0:"
    INDEX 01 04:05:23
